<?xml version="1.0" encoding="iso-8859-1"?>
<!-- Generator: Adobe Illustrator 19.0.0, SVG Export Plug-In . SVG Version: 6.00 Build 0)  -->
<svg version="1.1" id="Capa_1" xmlns="http://www.w3.org/2000/svg" xmlns:xlink="http://www.w3.org/1999/xlink" x="0px" y="0px"
	 viewBox="0 0 512 512" style="enable-background:new 0 0 512 512;" xml:space="preserve">
<g>
	<g>
		<path d="M256,125.248c-72.097,0-130.752,58.655-130.752,130.752S183.903,386.752,256,386.752S386.752,328.097,386.752,256
			S328.097,125.248,256,125.248z M256,356.752c-55.555,0-100.752-45.197-100.752-100.752c0-55.555,45.197-100.752,100.752-100.752
			S356.752,200.445,356.752,256S311.555,356.752,256,356.752z"/>
	</g>
</g>
<g>
	<g>
		<rect x="241" width="30" height="91"/>
	</g>
</g>
<g>
	<g>
		<rect x="241" y="421" width="30" height="91"/>
	</g>
</g>
<g>
	<g>
		<rect x="421" y="241" width="91" height="30"/>
	</g>
</g>
<g>
	<g>
		<rect y="241" width="91" height="30"/>
	</g>
</g>
<g>
	<g>
		<rect x="389.85" y="359.342" transform="matrix(0.7071 -0.7071 0.7071 0.7071 -167.6881 404.8474)" width="30" height="90.999"/>
	</g>
</g>
<g>
	<g>
		<rect x="92.143" y="61.659" transform="matrix(0.7071 -0.7071 0.7071 0.7071 -44.3911 107.1477)" width="30" height="90.999"/>
	</g>
</g>
<g>
	<g>
		<rect x="61.654" y="389.845" transform="matrix(0.7071 -0.7071 0.7071 0.7071 -254.884 194.3456)" width="90.999" height="30"/>
	</g>
</g>
<g>
	<g>
		<rect x="359.354" y="92.155" transform="matrix(0.7071 -0.7071 0.7071 0.7071 42.8088 317.66)" width="90.999" height="30"/>
	</g>
</g>
<g>
</g>
<g>
</g>
<g>
</g>
<g>
</g>
<g>
</g>
<g>
</g>
<g>
</g>
<g>
</g>
<g>
</g>
<g>
</g>
<g>
</g>
<g>
</g>
<g>
</g>
<g>
</g>
<g>
</g>
</svg>
