<?xml version="1.0" encoding="iso-8859-1"?>
<!-- Generator: Adobe Illustrator 19.0.0, SVG Export Plug-In . SVG Version: 6.00 Build 0)  -->
<svg version="1.1" id="Capa_1" xmlns="http://www.w3.org/2000/svg" xmlns:xlink="http://www.w3.org/1999/xlink" x="0px" y="0px"
	 viewBox="0 0 512 512" style="enable-background:new 0 0 512 512;" xml:space="preserve">
<g>
  <!--
	<g>
		<path d="M257,0C117.105,0,0,113.025,0,255c0,140.644,115.914,257,257,257c142.13,0,255-117.257,255-257C512,114.06,397.95,0,257,0
			z M257,482.2C131.832,482.2,29.8,380.168,29.8,255C29.8,130.935,131.832,29.8,257,29.8c124.065,0,225.2,101.135,225.2,225.2
			C482.2,380.168,381.065,482.2,257,482.2z"/>
	</g>
	-->
</g>
<g>
	<g>
		<path d="M257,210c-24.813,0-45,20.187-45,45v122c0,24.813,20.187,45,45,45s45-20.187,45-45V255C302,230.187,281.813,210,257,210z
			 M272,377c0,8.271-6.729,15-15,15s-15-6.729-15-15V255c0-8.271,6.729-15,15-15s15,6.729,15,15V377z"/>
	</g>
</g>
<g>
	<g>
		<path d="M257,90c-24.813,0-45,20.187-45,45s20.187,45,45,45s45-20.187,45-45S281.813,90,257,90z M257,150c-8.271,0-15-6.729-15-15
			s6.729-15,15-15s15,6.729,15,15S265.271,150,257,150z"/>
	</g>
</g>
<g>
</g>
<g>
</g>
<g>
</g>
<g>
</g>
<g>
</g>
<g>
</g>
<g>
</g>
<g>
</g>
<g>
</g>
<g>
</g>
<g>
</g>
<g>
</g>
<g>
</g>
<g>
</g>
<g>
</g>
</svg>
