<?xml version="1.0" encoding="UTF-8" standalone="no"?>
<!-- Generator: Adobe Illustrator 19.0.0, SVG Export Plug-In . SVG Version: 6.00 Build 0)  -->

<svg
   xmlns:dc="http://purl.org/dc/elements/1.1/"
   xmlns:cc="http://creativecommons.org/ns#"
   xmlns:rdf="http://www.w3.org/1999/02/22-rdf-syntax-ns#"
   xmlns:svg="http://www.w3.org/2000/svg"
   xmlns="http://www.w3.org/2000/svg"
   xmlns:sodipodi="http://sodipodi.sourceforge.net/DTD/sodipodi-0.dtd"
   xmlns:inkscape="http://www.inkscape.org/namespaces/inkscape"
   version="1.1"
   id="Capa_1"
   x="0px"
   y="0px"
   viewBox="0 0 512 512"
   style="enable-background:new 0 0 512 512;"
   xml:space="preserve"
   sodipodi:docname="info_d.svg"
   inkscape:version="0.92.5 (2060ec1f9f, 2020-04-08)"><metadata
   id="metadata4355"><rdf:RDF><cc:Work
       rdf:about=""><dc:format>image/svg+xml</dc:format><dc:type
         rdf:resource="http://purl.org/dc/dcmitype/StillImage" /><dc:title></dc:title></cc:Work></rdf:RDF></metadata><defs
   id="defs4353" /><sodipodi:namedview
   pagecolor="#ffffff"
   bordercolor="#666666"
   borderopacity="1"
   objecttolerance="10"
   gridtolerance="10"
   guidetolerance="10"
   inkscape:pageopacity="0"
   inkscape:pageshadow="2"
   inkscape:window-width="640"
   inkscape:window-height="480"
   id="namedview4351"
   showgrid="false"
   inkscape:zoom="0.4609375"
   inkscape:cx="256"
   inkscape:cy="256"
   inkscape:window-x="0"
   inkscape:window-y="0"
   inkscape:window-maximized="0"
   inkscape:current-layer="Capa_1" />
<g
   id="g4306">
  <!--
	<g>
		<path d="M257,0C117.105,0,0,113.025,0,255c0,140.644,115.914,257,257,257c142.13,0,255-117.257,255-257C512,114.06,397.95,0,257,0
			z M257,482.2C131.832,482.2,29.8,380.168,29.8,255C29.8,130.935,131.832,29.8,257,29.8c124.065,0,225.2,101.135,225.2,225.2
			C482.2,380.168,381.065,482.2,257,482.2z"/>
	</g>
	-->
</g>
<g
   id="g4312"
   style="fill:#b3b3b3">
	<g
   id="g4310"
   style="fill:#b3b3b3">
		<path
   d="M257,210c-24.813,0-45,20.187-45,45v122c0,24.813,20.187,45,45,45s45-20.187,45-45V255C302,230.187,281.813,210,257,210z     M272,377c0,8.271-6.729,15-15,15s-15-6.729-15-15V255c0-8.271,6.729-15,15-15s15,6.729,15,15V377z"
   id="path4308"
   style="fill:#b3b3b3" />
	</g>
</g>
<g
   id="g4318"
   style="fill:#b3b3b3">
	<g
   id="g4316"
   style="fill:#b3b3b3">
		<path
   d="M257,90c-24.813,0-45,20.187-45,45s20.187,45,45,45s45-20.187,45-45S281.813,90,257,90z M257,150c-8.271,0-15-6.729-15-15    s6.729-15,15-15s15,6.729,15,15S265.271,150,257,150z"
   id="path4314"
   style="fill:#b3b3b3" />
	</g>
</g>
<g
   id="g4320">
</g>
<g
   id="g4322">
</g>
<g
   id="g4324">
</g>
<g
   id="g4326">
</g>
<g
   id="g4328">
</g>
<g
   id="g4330">
</g>
<g
   id="g4332">
</g>
<g
   id="g4334">
</g>
<g
   id="g4336">
</g>
<g
   id="g4338">
</g>
<g
   id="g4340">
</g>
<g
   id="g4342">
</g>
<g
   id="g4344">
</g>
<g
   id="g4346">
</g>
<g
   id="g4348">
</g>
</svg>