<?xml version="1.0" encoding="UTF-8" standalone="no"?>
<!-- Generator: Adobe Illustrator 19.0.0, SVG Export Plug-In . SVG Version: 6.00 Build 0)  -->

<svg
   xmlns:dc="http://purl.org/dc/elements/1.1/"
   xmlns:cc="http://creativecommons.org/ns#"
   xmlns:rdf="http://www.w3.org/1999/02/22-rdf-syntax-ns#"
   xmlns:svg="http://www.w3.org/2000/svg"
   xmlns="http://www.w3.org/2000/svg"
   xmlns:sodipodi="http://sodipodi.sourceforge.net/DTD/sodipodi-0.dtd"
   xmlns:inkscape="http://www.inkscape.org/namespaces/inkscape"
   version="1.1"
   id="Capa_1"
   x="0px"
   y="0px"
   viewBox="0 0 512 512"
   style="enable-background:new 0 0 512 512;"
   xml:space="preserve"
   sodipodi:docname="info2_d.svg"
   inkscape:version="0.92.5 (2060ec1f9f, 2020-04-08)"><metadata
   id="metadata4570"><rdf:RDF><cc:Work
       rdf:about=""><dc:format>image/svg+xml</dc:format><dc:type
         rdf:resource="http://purl.org/dc/dcmitype/StillImage" /><dc:title></dc:title></cc:Work></rdf:RDF></metadata><defs
   id="defs4568" /><sodipodi:namedview
   pagecolor="#ffffff"
   bordercolor="#666666"
   borderopacity="1"
   objecttolerance="10"
   gridtolerance="10"
   guidetolerance="10"
   inkscape:pageopacity="0"
   inkscape:pageshadow="2"
   inkscape:window-width="640"
   inkscape:window-height="480"
   id="namedview4566"
   showgrid="false"
   inkscape:zoom="0.4609375"
   inkscape:cx="256"
   inkscape:cy="256"
   inkscape:window-x="0"
   inkscape:window-y="0"
   inkscape:window-maximized="0"
   inkscape:current-layer="Capa_1" />
<g
   id="g4533"
   style="fill:#b3b3b3">
	<g
   id="g4531"
   style="fill:#b3b3b3">
		<path
   d="M257,0C116.39,0,0,114.39,0,255s116.39,257,257,257s255-116.39,255-257S397.61,0,257,0z M287,392c0,16.54-13.47,30-30,30    c-16.54,0-30-13.46-30-30V240c0-16.54,13.46-30,30-30c16.53,0,30,13.46,30,30V392z M257,150c-16.54,0-30-13.46-30-30    s13.46-30,30-30c16.53,0,30,13.46,30,30S273.53,150,257,150z"
   id="path4529"
   style="fill:#b3b3b3" />
	</g>
</g>
<g
   id="g4535">
</g>
<g
   id="g4537">
</g>
<g
   id="g4539">
</g>
<g
   id="g4541">
</g>
<g
   id="g4543">
</g>
<g
   id="g4545">
</g>
<g
   id="g4547">
</g>
<g
   id="g4549">
</g>
<g
   id="g4551">
</g>
<g
   id="g4553">
</g>
<g
   id="g4555">
</g>
<g
   id="g4557">
</g>
<g
   id="g4559">
</g>
<g
   id="g4561">
</g>
<g
   id="g4563">
</g>
</svg>